<svg width="51" height="51" viewBox="0 0 51 51" fill="none" xmlns="http://www.w3.org/2000/svg">
<path fill-rule="evenodd" clip-rule="evenodd" d="M25.5 51C39.5833 51 51 39.5833 51 25.5C51 11.4167 39.5833 0 25.5 0C11.4167 0 0 11.4167 0 25.5C0 36.2588 6.66293 45.4614 16.0875 49.2066L18.1515 41.504C18.1572 41.4814 18.1632 41.4588 18.1696 41.4364L20.4545 32.909L12.5713 21.2178C12.1668 20.6178 12.0421 19.872 12.2293 19.1731L14.0411 12.4116C14.3984 11.0779 15.7693 10.2865 17.1029 10.6438C18.4366 11.0012 19.2281 12.372 18.8707 13.7057L17.3538 19.3669L22.1694 26.5088L26.8315 9.10948C27.1889 7.77581 28.5597 6.98436 29.8934 7.34171C31.2271 7.69907 32.0185 9.06991 31.6612 10.4036L25.5822 33.0907L25.5751 33.117L24.2132 38.1998L32.7776 35.2147L35.9292 23.4529C36.2865 22.1192 37.6574 21.3277 38.9911 21.6851C40.3247 22.0424 41.1162 23.4133 40.7588 24.747L37.2648 37.787C37.0505 38.5865 36.4544 39.2282 35.6728 39.5006L22.6482 44.0402L20.8945 50.5852C22.3883 50.8577 23.9275 51 25.5 51Z" fill="white"/>
</svg>
